<svg width="20" height="20" viewBox="0 0 20 20" fill="none" xmlns="http://www.w3.org/2000/svg">
<path d="M10 20C15.5228 20 20 15.5228 20 10C20 4.47715 15.5228 0 10 0C4.47715 0 0 4.47715 0 10C0 15.5228 4.47715 20 10 20Z" fill="#ED3F32"/>
<path d="M12.8571 7.14286C11.9048 6.95238 10.9524 7.14286 10.4762 7.71428C10.4762 7.71428 10.381 7.71429 10.381 7.80952C10.4762 6.66667 11.5238 5.71429 12.6667 5.71429C12.8571 5.71429 13.0476 5.52381 13.0476 5.33333C13.0476 5.14286 12.8571 4.95238 12.6667 4.95238C11.7143 4.95238 10.8571 5.42857 10.2857 6.19048C10.0952 5.14286 9.14286 4.28571 8 4.28571H6.66667C6.47619 4.28571 6.28571 4.47619 6.28571 4.66667C6.28571 6 7.33333 7.04762 8.66667 7.04762H9.80952C9.71429 7.33333 9.71429 7.52381 9.61905 7.80952C9.42857 7.71429 8.66667 6.7619 7.14286 7.14286C6.19048 7.33333 5.42857 8.09524 5.14286 9.04762C4.85714 9.90476 4.85714 10.8571 5.04762 11.8095C5.42857 14 6.76191 15.8095 8.19048 15.8095C8.47619 15.8095 8.7619 15.7143 8.95238 15.6191C9.61905 15.2381 10.381 15.2381 11.0476 15.6191C11.3333 15.7143 11.5238 15.8095 11.8095 15.8095C13.2381 15.8095 14.5714 14 14.9524 11.8095C15.1429 10.8571 15.0476 9.90476 14.8571 9.14286C14.5714 8.09524 13.8095 7.42857 12.8571 7.14286Z" fill="white"/>
</svg>
