<svg width="60" height="62" viewBox="0 0 60 62" fill="none" xmlns="http://www.w3.org/2000/svg">
<path fill-rule="evenodd" clip-rule="evenodd" d="M40.9142 10.7884C36.4899 11.6351 22.0184 14.5054 19.8045 14.9754C16.4613 15.6852 16.0354 15.8053 15.8482 16.0913C15.7283 16.2745 15.7002 16.4714 15.7527 16.7618C15.9596 17.9058 17.3774 23.3742 17.5862 23.8334C17.8515 24.4171 18.3119 24.8724 19.0146 25.2461C19.4764 25.4916 19.4764 25.4916 28.8828 25.584C35.4296 25.6483 38.3806 25.6412 38.5899 25.5608C39.1033 25.3636 39.3012 24.9348 40.7629 20.8538C41.181 19.6865 41.503 18.7113 41.4785 18.6868C41.454 18.6621 41.0263 19.568 40.5282 20.6996C39.3215 23.4412 38.6067 24.8617 38.3725 24.9837C38.2053 25.0707 34.226 24.7191 34.0901 24.6053C34.0274 24.5528 34.8543 19.0473 34.9375 18.9628C34.9761 18.9235 36.1645 18.7136 37.5782 18.4966C40.1964 18.0944 43.7665 17.4125 42.7736 17.5042C42.4728 17.5319 40.6362 17.7078 38.6921 17.8949C36.7481 18.0819 35.1286 18.2063 35.0935 18.171C35.0583 18.1359 35.1113 17.4288 35.2113 16.5998C35.3113 15.7708 35.4403 14.5313 35.4983 13.8453C35.5562 13.1594 35.623 12.5786 35.6468 12.5549C35.6707 12.531 36.5099 12.2925 37.5119 12.0248C39.0779 11.6064 41.5834 10.8165 41.7254 10.6964C41.7916 10.6405 41.5358 10.6695 40.9142 10.7884ZM34.6797 12.7328C34.3563 12.8133 29.6764 13.8949 29.1684 14.0066C28.9072 14.0641 28.9072 14.0641 28.9867 16.4397C29.0304 17.7463 29.0826 18.832 29.1025 18.8522C29.1547 18.9053 34.082 18.3552 34.1482 18.2891C34.2228 18.2143 35.1384 13.9247 35.2336 13.2036C35.3161 12.579 35.312 12.5755 34.6797 12.7328ZM27.7343 14.3238C27.4035 14.3999 26.2722 14.6426 25.2203 14.8633C24.1686 15.0838 23.2696 15.3027 23.2228 15.3496C23.1333 15.4391 23.707 19.3642 23.8272 19.4845C23.9018 19.5591 27.9536 19.1251 28.0461 19.0326C28.0764 19.0021 28.1869 18.0457 28.2916 16.907C28.3963 15.7685 28.4983 14.7017 28.5183 14.5362C28.5629 14.1679 28.4935 14.1491 27.7343 14.3238ZM19.9139 15.9693C18.7709 16.2268 17.5528 16.4956 17.2068 16.5666C16.8609 16.6376 16.5786 16.7537 16.5794 16.8248C16.5801 16.8957 16.9161 17.693 17.326 18.5963C18.1986 20.5198 17.8208 20.3715 20.8163 19.9667C22.703 19.7118 22.703 19.7118 22.7025 18.8255C22.7022 18.3381 22.6701 17.3851 22.6312 16.7075C22.5602 15.4757 22.5602 15.4757 22.2761 15.4883C22.1199 15.4953 21.0569 15.7118 19.9139 15.9693ZM31.5625 19.3214C30.3293 19.4855 29.2652 19.6235 29.1977 19.6282C29.1136 19.6339 29.0586 20.314 29.0222 21.7991C28.9931 22.9885 28.9796 23.975 28.9922 23.9914C29.0243 24.0331 32.6857 24.4627 32.7134 24.428C32.8215 24.2923 33.9581 19.1479 33.8918 19.0939C33.8439 19.0549 32.7957 19.1573 31.5625 19.3214ZM25.6065 20.0924C24.707 20.2075 23.9558 20.3168 23.9373 20.3353C23.9065 20.3662 24.3414 23.5061 24.381 23.5374C24.4658 23.6048 27.5867 23.8714 27.6386 23.8158C27.7047 23.7451 27.9531 20.8852 27.9531 20.1952C27.9531 19.7856 27.9915 19.7872 25.6065 20.0924ZM21.8827 20.5362C19.5509 20.8166 18.6294 20.9408 18.5903 20.9798C18.5664 21.0038 18.716 21.4136 18.9229 21.8903C19.28 22.7134 19.3224 22.764 19.761 22.8923C20.1956 23.0193 22.3921 23.3594 22.7782 23.3594C22.9358 23.3594 22.947 23.2074 22.8806 21.9657C22.8397 21.1993 22.7707 20.5433 22.7273 20.5081C22.6839 20.4729 22.3038 20.4856 21.8827 20.5362ZM30.5234 29.3689C29.2316 29.7088 28.1526 30.9112 27.908 32.2833C27.83 32.7213 27.83 32.7213 28.1156 32.1556C28.4583 31.4765 29.203 30.7623 29.9026 30.4419C30.5986 30.1232 31.7443 30.1265 32.4632 30.4493C33.0584 30.7166 33.9489 31.5623 34.2907 32.1851C34.5249 32.6118 34.5249 32.6118 34.4566 32.1799C34.3627 31.5846 33.9616 30.8321 33.4678 30.3246C32.7375 29.5736 31.3978 29.1388 30.5234 29.3689ZM41.0943 29.3859C39.7794 29.6559 38.7179 30.8244 38.5122 32.2286C38.44 32.7213 38.44 32.7213 38.711 32.1551C39.444 30.6239 41.2055 29.8092 42.705 30.3078C43.3974 30.538 44.3583 31.3876 44.806 32.1652C45.1161 32.7039 45.124 32.7093 45.0586 32.3381C44.7132 30.3782 42.8865 29.0179 41.0943 29.3859ZM21.0978 29.561C20.1416 29.9002 19.2368 31.003 19.0438 32.0643C18.9642 32.5023 18.9642 32.5023 19.4266 31.8092C20.9392 29.542 23.8298 29.6663 25.2363 32.0592C25.5501 32.5931 25.5586 32.5988 25.4869 32.2286C25.1766 30.627 23.7296 29.3739 22.2108 29.3914C21.8499 29.3956 21.349 29.4719 21.0978 29.561ZM40.8625 30.9888C40.215 31.2262 39.308 32.1414 39.1331 32.734C38.8321 33.7541 39.0445 34.5706 39.8181 35.3672C40.9905 36.5743 42.718 36.5536 43.832 35.3192C44.3414 34.7548 44.6223 34.0091 44.554 33.4026C44.3557 31.6413 42.4614 30.4026 40.8625 30.9888ZM21.1717 31.1423C20.116 31.6201 19.5311 32.4755 19.5311 33.5417C19.5311 34.6557 20.029 35.4571 21.0032 35.9113C21.7044 36.2381 22.7716 36.2608 23.414 35.9624C24.3042 35.5489 25.0014 34.5082 24.9975 33.5989C24.9891 31.6814 22.9184 30.3516 21.1717 31.1423ZM30.0312 31.1425C28.7842 31.7076 28.1515 33.0081 28.5062 34.2766C28.6966 34.9577 29.576 35.8807 30.1953 36.0498C30.8051 36.2162 31.9366 36.1999 32.3705 36.0185C33.1992 35.6718 33.9617 34.5635 33.9664 33.6989C33.9771 31.7004 31.8498 30.3184 30.0312 31.1425ZM8.27516 42.9405C8.13024 42.9837 7.90875 43.1571 7.78297 43.3256C7.56104 43.6231 7.55338 43.7642 7.52068 48.1955C7.5022 50.7055 7.51904 53.0262 7.5582 53.3526C7.65686 54.1748 8.04427 54.5658 8.76003 54.5658C9.196 54.5658 9.3266 54.5107 9.64346 54.1935C10.0153 53.8212 10.0153 53.8212 10.0153 51.782C10.0153 49.7427 10.0153 49.7427 11.8474 49.7727C13.6795 49.8027 13.6795 49.8027 13.7341 51.865C13.7888 53.9273 13.7888 53.9273 14.1599 54.259C14.4943 54.5578 14.5857 54.5854 15.0831 54.5375C15.5279 54.4947 15.695 54.4175 15.9426 54.1402C16.2498 53.7958 16.2498 53.7958 16.2498 48.8317C16.2498 43.8676 16.2498 43.8676 15.9997 43.4955C15.3333 42.5047 13.9951 42.7622 13.8043 43.9179C13.7671 44.1434 13.736 45.0001 13.7353 45.8218C13.7344 47.0822 13.7071 47.326 13.5611 47.3821C13.3122 47.4777 10.3135 47.4609 10.1597 47.363C10.0715 47.3069 10.0197 46.7029 9.99565 45.4503C9.96065 43.6198 9.96065 43.6198 9.62706 43.2862C9.27607 42.935 8.74679 42.7997 8.27516 42.9405ZM21.409 42.956C21.2086 43.0048 20.9011 43.1824 20.7257 43.3507C20.364 43.6975 20.3391 43.7593 18.8749 47.9413C18.2845 49.6275 17.6493 51.4231 17.4631 51.9314C17.1185 52.8731 17.0351 53.6459 17.2375 54.0243C17.4785 54.4752 18.3942 54.7138 18.8816 54.4527C19.1404 54.3141 19.4772 53.6725 19.6481 52.9928C19.7758 52.4854 19.7758 52.4854 21.7843 52.4854C23.7926 52.4854 23.7926 52.4854 23.8569 52.7865C24.1181 54.0086 24.6012 54.5658 25.3996 54.5658C25.7957 54.5658 25.953 54.5045 26.2059 54.2513C26.6309 53.8258 26.7021 53.4625 26.4941 52.7801C26.0031 51.17 23.438 43.75 23.2989 43.5373C22.9615 43.0218 22.1565 42.7742 21.409 42.956ZM28.2062 43.0576C28.0144 43.1778 27.8053 43.3739 27.7413 43.4937C27.6639 43.6385 27.625 45.412 27.625 48.7952C27.625 53.7577 27.6303 53.8861 27.8496 54.1651C28.1849 54.5917 28.8081 54.747 29.282 54.5219C29.9491 54.205 30.0312 53.929 30.0312 52.0031C30.0312 50.7503 30.0661 50.2954 30.1622 50.2954C30.2341 50.2954 31.2555 51.2489 32.4317 52.4144C34.7113 54.6731 34.7073 54.6704 35.8063 54.6741C37.0347 54.6781 37.3138 53.5542 36.2883 52.7333C35.5087 52.1091 32.2188 48.8444 32.2188 48.6948C32.2188 48.6228 32.4556 48.3498 32.7449 48.0883C35.5805 45.5255 37.0313 44.1179 37.0313 43.9298C37.0313 43.1815 36.3681 42.7991 35.2838 42.9222C34.6797 42.9908 34.6797 42.9908 32.4865 45.1649C31.2803 46.3607 30.2343 47.3391 30.1623 47.3391C30.0658 47.3391 30.0312 46.8627 30.0312 45.5307C30.0312 43.7225 30.0312 43.7225 29.6758 43.3371C29.2232 42.8463 28.7015 42.7472 28.2062 43.0576ZM2.08456 43.2706C1.0433 43.7638 0.408696 44.6262 0.181411 45.857C0.0242373 46.708 0.0268621 51.1037 0.184911 51.8504C0.423899 52.9792 0.982156 53.6945 1.97617 54.146C2.45524 54.3636 2.74006 54.3994 4.27308 54.4346C6.2786 54.4807 6.56123 54.4162 6.79399 53.8582C7.06152 53.2174 7.00224 52.6275 6.63309 52.2579C6.31338 51.9379 6.31338 51.9379 4.66432 51.9379C2.39202 51.9379 2.57774 52.2235 2.57774 48.7284C2.57774 45.2472 2.45119 45.4782 4.35937 45.4764C6.63856 45.4743 6.88193 45.3513 6.89264 44.1955C6.89757 43.6565 6.86344 43.5676 6.54089 43.2789C6.18367 42.9592 6.18367 42.9592 4.46274 42.9593C2.7989 42.9594 2.72004 42.9697 2.08456 43.2706ZM21.2979 48.3529C20.5728 50.3968 20.507 50.1859 21.8699 50.1859C22.5086 50.1859 23.0311 50.1506 23.0311 50.1074C23.0311 49.8614 21.9737 47.0108 21.8827 47.0115C21.8225 47.0121 21.5594 47.6156 21.2979 48.3529ZM16.3045 58.049C15.9183 58.1241 15.5935 58.5173 15.5935 58.9099C15.5935 59.3433 15.8628 59.6465 16.46 59.8857C17.2505 60.2023 17.3025 61.0036 16.5481 61.2422C16.1951 61.3538 16.1951 61.3538 16.5779 61.2991C16.995 61.2395 17.3436 60.907 17.3436 60.5687C17.3436 60.1915 17.1302 59.9376 16.5779 59.6574C16.0215 59.3751 15.8123 59.1233 15.8123 58.7364C15.8123 58.4174 16.2859 58.1371 16.6886 58.2177C16.8683 58.2537 17.0154 58.2409 17.0154 58.1892C17.0154 58.0734 16.6001 57.9915 16.3045 58.049ZM3.26703 58.234C2.9809 58.4347 2.84899 58.9632 3.01 59.2643C3.07529 59.3864 3.36153 59.6209 3.64613 59.7856C3.93084 59.9502 4.1999 60.1365 4.24409 60.1996C4.36911 60.3782 4.34176 60.8587 4.19837 61.0023C4.12717 61.0736 4.10683 61.1697 4.15309 61.2158C4.26859 61.331 4.65589 60.8326 4.65589 60.5687C4.65589 60.1956 4.4588 59.9643 3.84673 59.6184C3.16815 59.235 3.02203 58.9544 3.28891 58.5467C3.44696 58.3053 3.53566 58.2732 3.95424 58.3065C4.28948 58.3332 4.43714 58.3029 4.43714 58.2073C4.43714 58.0104 3.55721 58.0306 3.26703 58.234ZM5.31871 59.7121C5.31401 61.0992 5.33862 61.3545 5.47676 61.3545C5.60834 61.3545 5.64028 61.1825 5.64028 60.474C5.64028 59.5934 5.64028 59.5934 6.48795 59.6254C7.33562 59.6574 7.33562 59.6574 7.3692 60.4757C7.40124 61.254 7.44117 61.4497 7.5465 61.3443C7.58522 61.3055 7.6445 58.6736 7.61726 58.2001C7.61278 58.1212 7.55984 58.0872 7.49968 58.1244C7.43952 58.1616 7.39031 58.4601 7.39031 58.7878C7.39031 59.3836 7.39031 59.3836 6.51529 59.3836C5.64028 59.3836 5.64028 59.3836 5.64028 58.7266C5.64028 58.2268 5.60244 58.0697 5.48223 58.0697C5.35175 58.0697 5.3232 58.3556 5.31871 59.7121ZM9.0245 58.3656C8.17082 59.0848 8.13899 60.6311 8.96686 61.1741C9.2788 61.3786 10.0979 61.4131 10.475 61.2376C11.1406 60.9276 11.4371 59.7137 11.048 58.8926C10.6579 58.0698 9.67846 57.8148 9.0245 58.3656ZM11.9954 58.1698C11.8736 58.247 11.8578 58.4642 11.9173 59.2358C11.9584 59.7687 11.9956 60.2541 12.0001 60.3143C12.0046 60.3746 11.9719 60.6333 11.9275 60.8892C11.8599 61.2792 11.8756 61.3545 12.0248 61.3545C12.1714 61.3545 12.2029 61.2264 12.2029 60.631C12.2029 59.9193 12.2072 59.9084 12.4688 59.9741C12.7911 60.0552 13.2648 59.8882 13.5974 59.5762C14.2225 58.99 13.6478 58.0681 12.6593 58.0713C12.3782 58.0723 12.0794 58.1166 11.9954 58.1698ZM18.1783 58.3646C18.0501 59.0178 17.9726 61.3545 18.0791 61.3545C18.1943 61.3545 18.328 60.0991 18.328 59.0167C18.328 58.6466 18.3688 58.4002 18.4205 58.4584C18.4713 58.5155 18.6652 59.0059 18.8512 59.5479C19.3315 60.9473 19.5335 61.3976 19.6314 61.2869C19.6784 61.2338 19.8433 60.8454 19.9978 60.4238C20.1524 60.0023 20.4056 59.3247 20.5603 58.9183C20.7151 58.5118 20.8036 58.1792 20.7569 58.1792C20.6757 58.1792 20.3306 59.0061 19.9001 60.2328C19.789 60.5492 19.653 60.793 19.5979 60.7747C19.5427 60.7561 19.2955 60.1529 19.0485 59.4341C18.743 58.5448 18.5419 58.116 18.4191 58.0922C18.2959 58.0686 18.2194 58.155 18.1783 58.3646ZM22.5047 59.4657C21.9246 61.2712 21.9035 61.3545 22.0252 61.3545C22.0815 61.3545 22.19 61.1315 22.2663 60.859C22.3425 60.5864 22.4474 60.3372 22.4992 60.305C22.5512 60.2729 22.5936 60.1352 22.5936 59.9989C22.5936 59.5872 22.9315 58.6842 23.1608 58.4833C23.3818 58.2896 23.3469 58.0697 23.0951 58.0697C23.0098 58.0697 22.7747 58.6258 22.5047 59.4657ZM25.1335 58.1619C24.9372 58.2866 24.9917 61.2609 25.1913 61.3273C25.2914 61.3607 25.328 61.1799 25.328 60.6519C25.328 59.9311 25.328 59.9311 25.8258 59.9311C26.2905 59.9311 26.3342 59.9564 26.4821 60.3108C26.5693 60.5196 26.6406 60.8399 26.6406 61.0226C26.6406 61.2565 26.6933 61.3545 26.819 61.3545C26.962 61.3545 26.9849 61.278 26.9347 60.9679C26.9002 60.7553 26.7953 60.4274 26.7016 60.2394C26.4889 59.8125 26.4877 59.6657 26.6953 59.4931C26.7884 59.4157 26.8593 59.1769 26.8593 58.9402C26.8593 58.3764 26.4769 58.069 25.7781 58.0713C25.5005 58.0723 25.2104 58.113 25.1335 58.1619ZM27.3424 58.1645C27.3746 58.2166 27.5197 58.2365 27.6648 58.2088C27.8099 58.181 28.0325 58.214 28.1596 58.2821C28.377 58.3986 28.3906 58.492 28.3906 59.8737C28.3906 60.681 28.4326 61.3677 28.484 61.3994C28.5845 61.4616 28.717 60.0883 28.7181 58.973C28.7187 58.2887 28.7187 58.2887 29.2109 58.2887C29.4816 58.2887 29.7031 58.2394 29.7031 58.1792C29.7031 58.1128 29.227 58.0697 28.4935 58.0697C27.8283 58.0697 27.3103 58.1124 27.3424 58.1645ZM30.3594 59.4866C30.3594 60.3244 30.4046 60.9317 30.4701 60.9721C30.5422 61.0168 30.5768 60.6479 30.5695 59.9109C30.5515 58.1061 30.4706 58.2887 31.2891 58.2887C31.6901 58.2887 32 58.2409 32 58.1792C32 58.1159 31.6536 58.0697 31.1797 58.0697C30.3594 58.0697 30.3594 58.0697 30.3594 59.4866ZM32.6755 59.6486C32.7079 61.0888 32.7704 61.4958 32.9341 61.3319C32.9667 61.2994 32.9925 60.6013 32.9917 59.7806C32.9902 58.2887 32.9902 58.2887 33.4762 58.2887C33.8897 58.2887 33.9985 58.3378 34.2054 58.6179C34.3778 58.8512 34.4822 58.9129 34.5641 58.8296C34.6457 58.7466 34.5747 58.6176 34.3225 58.3908C34.0106 58.1103 33.8815 58.0697 33.3027 58.0697C32.6401 58.0697 32.6401 58.0697 32.6755 59.6486ZM37.6097 58.1574C37.5368 58.2038 37.744 58.2417 38.0704 58.2417C38.3968 58.2417 38.6041 58.2038 38.5311 58.1574C38.4583 58.1109 38.2509 58.0731 38.0704 58.0731C37.8899 58.0731 37.6826 58.1109 37.6097 58.1574ZM42.9245 58.3363C42.454 58.6565 42.2374 59.1311 42.2478 59.8197C42.2589 60.549 42.5295 61.003 43.1051 61.2579C44.0914 61.6945 44.8854 61.1502 45.0712 59.9099C45.1345 59.4874 45.1039 59.3207 44.8945 58.9478C44.4147 58.0931 43.637 57.8518 42.9245 58.3363ZM45.743 58.6445C45.6159 59.7036 45.657 61.3778 45.8088 61.3276C45.8912 61.3005 45.9585 61.0358 45.9783 60.6615C46.0111 60.0406 46.0111 60.0406 46.4158 60.0389C46.6384 60.038 46.8944 59.99 46.9846 59.9322C47.0945 59.8619 46.9591 59.8494 46.5744 59.8944C46.0002 59.9616 46.0002 59.9616 46.0002 59.1325C46.0002 58.3974 46.0252 58.2954 46.2207 58.2334C46.5932 58.115 47.1666 58.3736 47.3123 58.7257C47.4197 58.9852 47.4132 59.1049 47.2773 59.3778C47.1387 59.6559 47.1363 59.7121 47.2625 59.7121C47.4633 59.7121 47.6417 59.3638 47.6374 58.9802C47.6307 58.389 47.1796 58.0697 46.3508 58.0697C45.812 58.0697 45.812 58.0697 45.743 58.6445ZM48.4585 59.3015C48.4871 61.239 48.5063 61.4829 48.6252 61.4093C48.6902 61.3691 48.7346 60.6782 48.7346 59.7056C48.7346 58.4082 48.7042 58.0697 48.5875 58.0697C48.4719 58.0697 48.4443 58.3337 48.4585 59.3015ZM54.183 58.2526C54.5629 58.3428 54.9003 58.4862 54.933 58.5715C54.9657 58.6568 55.0441 58.7266 55.1071 58.7266C55.1701 58.7266 55.1329 58.6284 55.0243 58.5083C54.8107 58.2719 54.2041 58.0654 53.7659 58.08C53.6155 58.0849 53.8032 58.1626 54.183 58.2526ZM9.40513 58.3345C8.85256 58.5754 8.47707 59.6297 8.70151 60.3104C8.94564 61.051 9.75688 61.4498 10.361 61.1261C10.4829 61.0608 10.6813 60.7843 10.8019 60.5116C11.1204 59.7907 11.0033 59.1425 10.4556 58.5941C10.0024 58.1404 9.90542 58.1164 9.40513 58.3345ZM25.401 58.2522C25.3609 58.2923 25.328 58.6684 25.328 59.0878C25.328 59.8504 25.328 59.8504 25.7698 59.7912C26.5254 59.6897 26.8798 59.1862 26.5903 58.6256C26.4096 58.2758 25.6238 58.029 25.401 58.2522ZM39.5212 58.3982C39.399 58.8133 39.4204 61.2215 39.547 61.2998C39.6128 61.3405 39.6564 61.196 39.6564 60.9367C39.6564 60.1912 39.7696 59.8377 40.0243 59.7878C40.2558 59.7423 40.2557 59.7418 40.0168 59.727C39.7626 59.7113 39.6892 59.4907 39.6298 58.5624C39.6053 58.1814 39.5912 58.16 39.5212 58.3982ZM41.4064 59.6574C41.4064 60.5698 41.4483 61.1356 41.5158 61.1356C41.5833 61.1356 41.6251 60.5698 41.6251 59.6574C41.6251 58.7449 41.5833 58.1792 41.5158 58.1792C41.4483 58.1792 41.4064 58.7449 41.4064 59.6574ZM12.2252 59.0278C12.255 59.7087 12.2778 59.7697 12.514 59.8032C13.0656 59.8814 13.6248 59.4195 13.6248 58.8857C13.6248 58.5562 13.206 58.2887 12.69 58.2887C12.1929 58.2887 12.1929 58.2887 12.2252 59.0278ZM42.9226 58.5987C42.6311 58.8595 42.5679 59.0052 42.5258 59.5144C42.4629 60.2727 42.7004 60.8195 43.2366 61.1513C43.6193 61.3881 43.6238 61.3883 44.0085 61.1809C44.5609 60.8829 44.7962 60.4388 44.7966 59.6925C44.7971 59.1367 44.758 59.0293 44.4287 58.6797C43.9488 58.1704 43.4325 58.1427 42.9226 58.5987ZM53.0732 58.3617C53.0331 58.4018 53.0003 59.0916 53.0003 59.8946C53.0003 61.3545 53.0003 61.3545 53.7167 61.3545C54.5583 61.3545 54.9982 61.1631 55.3016 60.6648C55.5321 60.2864 55.5935 59.3447 55.4066 59.0551C55.2859 58.8682 55.2682 58.9419 55.295 59.5208C55.3408 60.5144 54.7645 61.245 53.935 61.245C53.6614 61.245 53.4105 61.1798 53.3352 61.089C53.2471 60.9826 53.2166 60.5131 53.2398 59.6106C53.2719 58.3626 53.2484 58.1864 53.0732 58.3617ZM20.9639 59.9037C20.9571 60.8052 20.9944 61.3545 21.0624 61.3545C21.193 61.3545 21.193 59.1347 21.0624 58.7266C21.0082 58.5575 20.9706 59.0072 20.9639 59.9037ZM51.9297 59.3836C51.9309 60.2387 51.9389 60.2729 52.0288 59.8055C52.0867 59.5045 52.0861 59.1246 52.0275 58.8748C51.9433 58.516 51.9287 58.592 51.9297 59.3836ZM50.2659 58.7275C50.2659 58.8866 51.4895 60.8071 51.5909 60.8071C51.6822 60.8071 51.1587 59.8427 50.6547 59.0825C50.3364 58.6024 50.2659 58.538 50.2659 58.7275ZM23.4111 58.9456C23.6127 59.9034 23.6114 60.0405 23.4006 60.0455C23.2573 60.049 23.2944 60.0939 23.5233 60.1942C23.7038 60.2733 23.8644 60.3279 23.8802 60.3157C23.9176 60.2865 23.5855 59.1739 23.4548 58.8909C23.3679 58.7031 23.3618 58.7109 23.4111 58.9456ZM49.7876 59.9633C49.7006 61.1405 49.7261 61.4934 49.8867 61.3326C49.9187 61.3006 49.931 60.6888 49.914 59.9731C49.8831 58.6719 49.8831 58.6719 49.7876 59.9633ZM38.2345 59.7949C38.2345 59.855 38.3083 59.9656 38.3985 60.0406C38.4888 60.1156 38.5626 60.3453 38.5626 60.5512C38.5626 60.8846 38.5117 60.9493 38.0978 61.1423C37.6329 61.3591 37.6329 61.3591 38.0085 61.3008C38.5728 61.2132 38.798 60.9554 38.7593 60.442C38.7364 60.1395 38.6533 59.9624 38.4806 59.8482C38.3453 59.7586 38.2345 59.7347 38.2345 59.7949ZM34.0741 60.1425C34.1437 60.2727 34.2353 60.5825 34.2777 60.8309C34.3201 61.0794 34.4188 61.304 34.497 61.33C34.6055 61.3663 34.6215 61.2772 34.5648 60.9554C34.4694 60.4143 34.282 60.015 34.0949 59.9539C33.9766 59.9152 33.9725 59.9525 34.0741 60.1425ZM57.5394 60.4786C57.5022 60.5388 57.5006 60.5881 57.5358 60.5881C57.5709 60.5881 57.5247 60.7335 57.4329 60.9111C57.233 61.298 57.2244 61.3866 57.3923 61.3307C57.5415 61.2809 57.8318 60.3691 57.6985 60.3691C57.6481 60.3691 57.5766 60.4184 57.5394 60.4786ZM35.4328 61.5468C35.4203 62.0663 35.4203 62.0663 35.5612 61.683C35.7446 61.1844 35.7497 61.0259 35.5821 61.0267C35.4938 61.0271 35.4409 61.2113 35.4328 61.5468Z" fill="#262626"/>
<path fill-rule="evenodd" clip-rule="evenodd" d="M28.0964 0.857946C28.097 1.21928 28.1174 1.35385 28.1418 1.15709C28.1661 0.960324 28.1656 0.664685 28.1407 0.500112C28.1157 0.33554 28.0958 0.496609 28.0964 0.857946ZM24.8217 1.56967C24.8217 2.20201 24.8397 2.46064 24.8618 2.14453C24.8839 1.82841 24.8839 1.31093 24.8618 0.994816C24.8397 0.678701 24.8217 0.937331 24.8217 1.56967ZM53.1436 1.94021C52.5999 2.19905 52.0062 2.8349 51.851 3.32457C51.8011 3.48169 51.6317 3.53852 51.0541 3.59163C49.2178 3.76036 49.1352 3.8346 48.2483 6.11376C47.452 8.16035 47.0702 8.93219 46.716 9.21107C46.4305 9.43587 45.6951 9.65081 43.4299 10.1714C42.708 10.3372 41.9943 10.5605 41.8439 10.6674C41.4456 10.9505 40.1504 11.3795 37.7684 12.0176C35.6681 12.58 35.6681 12.5801 35.5337 14.0637C35.4597 14.8797 35.3298 16.1102 35.2449 16.7981C35.1601 17.486 35.1211 18.0792 35.1586 18.1162C35.196 18.1533 37.097 17.9952 39.383 17.765C41.6689 17.5349 43.6337 17.3443 43.749 17.3418C44.1987 17.3317 43.7943 17.4639 42.8265 17.6434C41.8125 17.8314 41.8126 17.8314 41.5723 18.6518C40.8825 21.0063 39.3952 24.8085 38.9776 25.2846C38.6494 25.6588 38.6494 25.6588 34.5864 25.6772C30.5235 25.6955 30.5235 25.6955 35.4454 25.78C40.8642 25.873 41.0593 25.8566 41.9176 25.2342C42.1609 25.0577 42.4619 24.7482 42.5864 24.5465C42.7929 24.2121 45.416 17.8212 48.6744 9.71377C49.3793 7.95997 50.0461 6.37666 50.1562 6.19533C50.3289 5.91097 50.4566 5.84834 51.0862 5.73863C51.8158 5.61139 51.8158 5.61139 52.2452 6.09974C53.34 7.34471 55.1318 7.42136 56.2551 6.27121C56.8191 5.69362 56.9926 5.22958 56.9926 4.29842C56.9926 3.56589 56.9538 3.4057 56.6618 2.93312C56.4799 2.63857 56.1191 2.24855 55.8601 2.06624C55.4509 1.77837 55.2787 1.73052 54.5501 1.70238C53.8424 1.67501 53.6226 1.71223 53.1436 1.94021ZM47.0716 2.44871C46.3291 2.57397 45.7151 2.96126 45.3496 3.53469C44.9636 4.14031 42.5991 8.93186 42.6574 8.99033C42.6802 9.0131 43.0322 8.93865 43.4396 8.82477C44.1803 8.61782 44.1803 8.61783 45.2984 6.54813C45.9133 5.40981 46.561 4.32623 46.7378 4.14031C46.9652 3.90106 47.2413 3.76145 47.6831 3.66247C48.1733 3.55265 48.4139 3.41884 48.8044 3.03889C49.0779 2.77281 49.3463 2.55514 49.401 2.55514C49.4556 2.55514 49.5003 2.50586 49.5003 2.44564C49.5003 2.31698 47.8396 2.31917 47.0716 2.44871ZM18.7704 3.76025C17.8467 4.30258 17.0248 4.80134 16.9438 4.86857C16.6559 5.10782 16.8101 5.59847 17.8692 7.81314C18.459 9.0465 19.2806 10.7947 19.6949 11.6981C20.1092 12.6014 20.4622 13.3599 20.4793 13.3835C20.5188 13.4383 22.6657 13.048 22.8072 12.9605C22.9312 12.8838 22.7798 11.7308 22.1528 7.97519C21.3174 2.97188 21.2614 2.77413 20.6806 2.77413C20.5537 2.77413 19.6941 3.21792 18.7704 3.76025ZM28.0017 4.79981C28.0078 5.78527 28.0078 5.78527 29.1016 5.79096C30.1953 5.79677 30.1953 5.79677 29.133 5.75987C28.0706 5.72297 28.0706 5.72297 28.0331 4.7686C27.9956 3.81434 27.9956 3.81434 28.0017 4.79981ZM39.8977 5.92115C40.3012 5.94207 40.9903 5.94229 41.429 5.92137C41.8678 5.90057 41.5377 5.88338 40.6955 5.88327C39.8533 5.88305 39.4943 5.90013 39.8977 5.92115ZM23.1858 7.23609C23.2203 7.40165 23.4496 8.69502 23.6954 10.11C23.9413 11.5251 24.1616 12.702 24.185 12.7255C24.2084 12.7489 24.7874 12.6579 25.4716 12.5233C26.7156 12.2786 26.7156 12.2786 26.7859 9.70315C26.8245 8.2866 26.8293 7.08433 26.7966 7.03134C26.7639 6.97834 25.924 6.93498 24.9302 6.93498C23.1232 6.93498 23.1232 6.93498 23.1858 7.23609ZM15.1531 7.60674C13.9259 8.35394 13.7342 8.53745 13.7342 8.96471C13.7342 9.24064 13.8432 9.41518 14.2537 9.79611C15.3235 10.789 18.7844 13.669 18.9078 13.669C18.9782 13.669 19.0509 13.5916 19.069 13.497C19.1182 13.241 16.3753 7.14105 16.1819 7.07656C16.1258 7.05783 15.6628 7.29643 15.1531 7.60674ZM27.9285 9.48076C27.8993 10.8208 27.896 11.9408 27.9214 11.9698C27.9605 12.0146 29.126 11.7943 31.4699 11.2993C31.9788 11.1917 31.9788 11.1917 32.0451 9.80246C32.0815 9.0384 32.1299 8.10527 32.1525 7.72883C32.1937 7.04448 32.1937 7.04448 30.0876 7.04448C27.9817 7.04448 27.9817 7.04448 27.9285 9.48076ZM33.3825 7.23609C33.3526 7.34143 33.2942 8.2336 33.2528 9.21852C33.1805 10.9343 33.1858 11.0068 33.3816 10.9499C33.494 10.9171 34.3735 10.7344 35.336 10.5436C36.2986 10.353 37.162 10.1566 37.2548 10.1072C37.3733 10.0442 37.4637 9.69625 37.5579 8.9415C37.6317 8.34978 37.7222 7.68098 37.7589 7.45509C37.8257 7.04448 37.8257 7.04448 35.6311 7.04448C33.6348 7.04448 33.4318 7.06178 33.3825 7.23609ZM39.0718 7.1266C38.9817 7.27277 38.6541 9.69088 38.716 9.75286C38.7685 9.80542 40.3759 9.53365 40.881 9.38682C41.058 9.33535 41.9541 7.80941 42.1118 7.29084C42.1868 7.04448 42.1868 7.04448 40.6546 7.04448C39.8119 7.04448 39.0997 7.08138 39.0718 7.1266ZM33.4766 13.0758C32.7548 13.2493 31.4751 13.5459 30.6329 13.7348C29.7907 13.9238 29.0839 14.0944 29.0621 14.114C28.9876 14.181 29.0579 18.7058 29.1344 18.7739C29.2263 18.8555 33.992 18.3333 34.096 18.2303C34.1549 18.172 35.2814 13.0103 35.2814 12.7992C35.2814 12.6849 34.7903 12.7603 33.4766 13.0758ZM27.868 14.3448C27.7911 14.3757 26.7329 14.6104 25.5164 14.8665C23.8196 15.2236 23.2966 15.3729 23.2704 15.5074C23.2324 15.702 23.7629 19.2741 23.851 19.4167C23.8815 19.466 23.9925 19.4894 24.0977 19.4684C24.2029 19.4475 25.0864 19.3457 26.0608 19.2422C27.0354 19.1388 27.8805 19.0244 27.9389 18.9883C27.9973 18.9522 28.1232 18.0854 28.2186 17.0623C28.314 16.039 28.4219 14.9925 28.4584 14.7366C28.5207 14.3 28.5089 14.2718 28.2664 14.2799C28.1242 14.2846 27.9449 14.3138 27.868 14.3448ZM21.2265 15.7466C20.6249 15.8851 19.3775 16.1599 18.4543 16.3574C17.4787 16.5661 16.7534 16.7753 16.722 16.857C16.6635 17.0098 17.936 19.9443 18.1452 20.1389C18.2379 20.2251 18.8703 20.177 20.4342 19.9648C21.6226 19.8036 22.6188 19.6479 22.6478 19.6188C22.7507 19.5159 22.5394 15.5483 22.4296 15.5214C22.3695 15.5068 21.828 15.6081 21.2265 15.7466ZM40.2033 18.1195C39.5716 18.2319 38.153 18.4669 37.0508 18.6414C35.9487 18.816 35.0236 18.9822 34.995 19.0108C34.8593 19.1466 34.0989 24.5603 34.2149 24.5649C34.23 24.5655 35.0298 24.6636 35.9923 24.7828C38.6027 25.1063 38.3727 25.1575 38.8847 24.1381C39.4092 23.0935 41.6252 18.1143 41.6252 17.9801C41.6252 17.865 41.6395 17.8636 40.2033 18.1195ZM31.3438 19.3915C30.1707 19.5414 29.1748 19.7195 29.1306 19.7872C29.0864 19.8549 29.0495 20.8267 29.0485 21.9468C29.0469 23.9833 29.0469 23.9833 30.8243 24.1936C32.4052 24.3808 32.6105 24.3856 32.6819 24.2375C32.7814 24.0313 33.8595 19.4612 33.8595 19.2456C33.8595 19.0595 34.0068 19.0509 31.3438 19.3915ZM25.875 20.104C24.8824 20.2263 24.0504 20.3431 24.0261 20.3634C24.0017 20.3837 24.0722 21.0888 24.1828 21.9302C24.3784 23.4193 24.3913 23.4618 24.6645 23.5152C25.2089 23.6217 27.5268 23.8227 27.5813 23.7681C27.6229 23.7265 27.9433 20.4126 27.9517 19.9376C27.9533 19.8405 28.1211 19.827 25.875 20.104ZM20.4335 20.7589C19.456 20.8808 18.6561 21.0203 18.6561 21.069C18.6561 21.1176 18.823 21.5241 19.0271 21.9724C19.3981 22.7874 19.3981 22.7874 20.4217 22.9667C21.8293 23.2134 22.8017 23.3336 22.8664 23.2688C22.9255 23.2097 22.8293 21.1574 22.7487 20.7589C22.6895 20.4658 22.7809 20.4658 20.4335 20.7589ZM42.5002 42.9739C42.009 43.0744 41.6568 43.493 41.57 44.0794C41.5319 44.3365 41.5165 46.5917 41.5356 49.091C41.5666 53.1224 41.5915 53.6735 41.7568 53.9755C42.0687 54.5457 42.3032 54.5834 45.3063 54.5454C48.033 54.511 48.033 54.511 48.6649 54.1278C49.3375 53.7198 49.6509 53.3745 50.0371 52.6153C50.2716 52.1543 50.2765 52.0619 50.2443 48.7282C50.2112 45.3134 50.2113 45.3134 49.9038 44.6866C49.7347 44.3418 49.3955 43.8877 49.1501 43.6774C48.389 43.0252 47.9162 42.9328 45.2436 42.9133C43.9434 42.9039 42.7089 42.9312 42.5002 42.9739ZM53.5374 42.9314C52.1914 42.9647 52.1537 42.9724 51.8667 43.2722C51.665 43.483 51.5436 43.7649 51.4788 44.1725C51.4271 44.4988 51.3773 46.6805 51.3681 49.0207C51.3524 53.0811 51.3617 53.2964 51.5721 53.7314C51.9739 54.5623 51.9916 54.5658 55.7844 54.5658C58.5325 54.5658 59.1928 54.5365 59.4498 54.4034C60.0743 54.0802 60.1763 52.8308 59.6235 52.277C59.3396 51.9926 59.3396 51.9926 56.658 51.9598C53.9764 51.9269 53.9764 51.9269 54.0079 50.9743C54.0394 50.0217 54.0394 50.0217 56.3734 49.9669C58.7074 49.9122 58.7074 49.9122 58.9711 49.6049C59.3054 49.2156 59.3592 48.5366 59.0973 48.0141C58.844 47.5088 58.5334 47.4485 56.1777 47.4485C53.9847 47.4485 53.9847 47.4485 53.9847 46.5726C53.9847 45.6966 53.9847 45.6966 56.3637 45.6959C57.6959 45.6956 58.9256 45.6445 59.1585 45.5798C59.7123 45.4258 59.9995 44.9541 60 44.1972C60.0005 43.4612 59.7036 43.0871 59.0129 42.9537C58.5487 42.864 56.5813 42.856 53.5374 42.9314ZM31.9935 45.4237C30.9972 46.417 30.2103 47.2295 30.2447 47.2295C30.279 47.2295 31.1183 46.4165 32.1094 45.4229C33.1006 44.4292 33.8876 43.6166 33.8583 43.617C33.8288 43.6175 32.9897 44.4305 31.9935 45.4237ZM7.44045 48.4887C7.44055 51.0783 7.45488 52.122 7.47227 50.8081C7.48977 49.4942 7.48977 47.3755 7.47227 46.0998C7.45477 44.8241 7.44045 45.8992 7.44045 48.4887ZM10.0493 44.4374C10.0498 44.7987 10.0703 44.9333 10.0947 44.7365C10.119 44.5398 10.1185 44.2441 10.0936 44.0796C10.0685 43.915 10.0486 44.076 10.0493 44.4374ZM16.2988 47.3938C16.2987 49.3811 16.3135 50.2096 16.3317 49.2349C16.3497 48.26 16.3498 46.634 16.3318 45.6215C16.3136 44.6089 16.2988 45.4064 16.2988 47.3938ZM13.6245 45.6093C13.5946 46.5549 13.6084 47.2903 13.6552 47.2432C13.7019 47.1963 13.7264 46.4226 13.7096 45.5238C13.6788 43.8899 13.6788 43.8899 13.6245 45.6093ZM3.69889 45.5585C4.04485 45.5802 4.61076 45.5802 4.95672 45.5585C5.30268 45.5368 5.01961 45.519 4.32781 45.519C3.636 45.519 3.35294 45.5368 3.69889 45.5585ZM10.0536 46.3536C10.0536 46.8655 10.0725 47.0748 10.0954 46.8189C10.1185 46.563 10.1185 46.1441 10.0954 45.8882C10.0725 45.6323 10.0536 45.8417 10.0536 46.3536ZM44.2502 48.8172C44.2502 52.0474 44.2502 52.0474 45.7317 52.0474C47.8817 52.0474 47.7503 52.2604 47.7503 48.7754C47.7503 45.3713 47.8882 45.5871 45.712 45.5871C44.2502 45.5871 44.2502 45.5871 44.2502 48.8172ZM0 48.872C0 50.3474 0.0155301 50.951 0.0344522 50.2133C0.0533743 49.4756 0.0533743 48.2683 0.0344522 47.5307C0.0155301 46.793 0 47.3965 0 48.872ZM2.62175 49.529C2.62175 50.4624 2.6386 50.8443 2.65905 50.3776C2.67962 49.9108 2.67962 49.1471 2.65905 48.6804C2.6386 48.2136 2.62175 48.5955 2.62175 49.529ZM10.0608 51.8284C10.0608 52.9425 10.0771 53.3982 10.0969 52.8412C10.1168 52.2842 10.1168 51.3725 10.0969 50.8155C10.0771 50.2585 10.0608 50.7143 10.0608 51.8284ZM13.6695 51.7736C13.6694 52.7974 13.6858 53.231 13.7061 52.7371C13.7263 52.2433 13.7264 51.4056 13.7063 50.8757C13.6863 50.3458 13.6697 50.7498 13.6695 51.7736ZM31.9985 52.1842C33.3688 53.5828 33.5313 53.7394 33.5313 53.6609C33.5313 53.645 32.8546 52.9675 32.0274 52.1553C30.5235 50.6787 30.5235 50.6787 31.9985 52.1842ZM21.4179 52.5666C21.8239 52.5876 22.4885 52.5876 22.8945 52.5666C23.3005 52.5455 22.9683 52.5283 22.1562 52.5283C21.3441 52.5283 21.0119 52.5455 21.4179 52.5666ZM4.46857 54.5373C4.81661 54.5591 5.35802 54.5589 5.67172 54.5369C5.9853 54.5149 5.70048 54.497 5.03876 54.4972C4.37703 54.4975 4.12043 54.5155 4.46857 54.5373ZM35.3634 54.7544C35.559 54.7787 35.8788 54.7787 36.0743 54.7544C36.2699 54.7302 36.1099 54.7103 35.7189 54.7103C35.3278 54.7103 35.1678 54.7302 35.3634 54.7544ZM30.1867 58.1074C30.1538 58.1933 30.146 58.4786 30.1693 58.7415C30.2113 59.2139 30.2121 59.2128 30.2309 58.6445C30.25 58.0697 30.25 58.0697 31.1171 58.0697C31.7133 58.0697 31.9983 58.1124 32.0299 58.2065C32.0564 58.2855 32.0708 58.2739 32.064 58.1791C32.0472 57.9435 30.2755 57.8758 30.1867 58.1074ZM32.5676 59.7395C32.5884 61.5296 32.6289 61.3171 32.6822 59.137C32.698 58.4895 32.6741 57.9598 32.629 57.9599C32.5838 57.96 32.5562 58.7609 32.5676 59.7395ZM39.3764 58.1021C39.3464 58.1801 39.3371 58.9561 39.3557 59.8266C39.3894 61.4093 39.3894 61.4093 39.4136 59.7475C39.435 58.2689 39.4588 58.0802 39.6291 58.0356C39.8084 57.9887 39.8082 57.9848 39.6257 57.9729C39.5185 57.9659 39.4063 58.024 39.3764 58.1021ZM49.5484 58.1021C49.5185 58.1801 49.5092 58.9561 49.5277 59.8266C49.5614 61.4093 49.5614 61.4093 49.5856 59.7486C49.6031 58.5413 49.647 58.0728 49.7464 58.0326C49.8535 57.9894 49.8527 57.9756 49.743 57.9688C49.6659 57.9641 49.5783 58.024 49.5484 58.1021ZM5.24712 59.7668C5.24723 60.7304 5.26396 61.1099 5.28431 60.6103C5.30454 60.1105 5.30443 59.3222 5.28398 58.8584C5.26352 58.3944 5.24701 58.8033 5.24712 59.7668ZM5.68605 58.6987C5.69501 59.3289 5.69501 59.3289 6.51534 59.3372C7.33566 59.3454 7.33566 59.3454 6.54804 59.3051C5.76031 59.2647 5.76031 59.2647 5.71864 58.6666C5.67708 58.0686 5.67708 58.0686 5.68605 58.6987ZM24.9343 59.7668C24.9344 60.6702 24.9514 61.0252 24.972 60.5556C24.9925 60.0862 24.9924 59.3471 24.9717 58.9132C24.951 58.4794 24.9342 58.8635 24.9343 59.7668ZM45.6041 59.3836C45.6041 60.0762 45.6219 60.3595 45.6436 60.0132C45.6652 59.6669 45.6652 59.1003 45.6436 58.754C45.6219 58.4077 45.6041 58.691 45.6041 59.3836ZM12.2477 58.4394C12.2158 58.5223 12.2085 58.8303 12.2314 59.1238C12.2729 59.6573 12.2729 59.6573 12.2926 59.0346C12.3121 58.4192 12.3163 58.4115 12.6678 58.3678C13.0232 58.3237 13.0232 58.3237 12.6644 58.3062C12.447 58.2955 12.2827 58.3482 12.2477 58.4394ZM25.3728 58.4394C25.341 58.5223 25.3337 58.8303 25.3565 59.1238C25.3981 59.6573 25.3981 59.6573 25.4178 59.0346C25.4373 58.4192 25.4415 58.4115 25.7929 58.3678C26.1484 58.3237 26.1484 58.3237 25.7896 58.3062C25.5722 58.2955 25.4078 58.3482 25.3728 58.4394ZM46.045 58.4394C46.0132 58.5223 46.0058 58.8303 46.0287 59.1238C46.0703 59.6573 46.0703 59.6573 46.0899 59.0343C46.1096 58.4114 46.1096 58.4114 46.5198 58.3684C46.93 58.3254 46.93 58.3254 46.5164 58.307C46.2523 58.2953 46.0818 58.3432 46.045 58.4394ZM33.0302 59.0272C33.0391 59.6573 33.0391 59.6573 33.4503 59.6688C33.8586 59.6802 33.8588 59.68 33.4829 59.6351C33.1091 59.5906 33.1039 59.5824 33.0628 58.9936C33.0212 58.397 33.0212 58.397 33.0302 59.0272ZM18.328 59.3836C18.328 59.8252 18.3487 60.166 18.3738 60.1407C18.4538 60.0606 18.4787 58.7314 18.4017 58.6545C18.3611 58.6138 18.328 58.942 18.328 59.3836ZM20.7111 58.8088C20.6913 58.854 20.705 59.1619 20.7415 59.4931C20.808 60.0953 20.808 60.0953 20.8258 59.411C20.8421 58.7852 20.8056 58.5935 20.7111 58.8088ZM21.2106 59.6573C21.2103 60.1994 21.2288 60.4349 21.2517 60.1807C21.2746 59.9266 21.2749 59.4831 21.2523 59.1953C21.2298 58.9074 21.2109 59.1153 21.2106 59.6573ZM49.961 60.068C49.9843 61.2998 49.9843 61.2998 50.0195 60.1185C50.0444 59.2818 50.0904 58.9594 50.1772 59.0132C50.2518 59.0593 50.2692 59.0395 50.2216 58.9626C50.0114 58.6218 49.9396 58.9266 49.961 60.068ZM11.8029 60.3143C11.8033 60.7961 11.8225 60.9796 11.8456 60.7221C11.8688 60.4646 11.8684 60.0704 11.8449 59.8461C11.8214 59.6219 11.8025 59.8325 11.8029 60.3143ZM39.8067 59.9822C39.7729 60.0706 39.7705 60.206 39.8016 60.2833C39.8325 60.3606 39.8618 60.3153 39.8665 60.1827C39.8743 59.9651 39.9421 59.9378 40.5588 59.9026C41.2424 59.8637 41.2424 59.8637 40.5554 59.8427C40.0381 59.8268 39.8531 59.8613 39.8067 59.9822ZM5.68539 60.1905C5.65378 60.2729 5.64383 60.6056 5.66329 60.9296C5.69862 61.5188 5.69862 61.5188 5.75156 60.7795C5.80472 60.0353 5.79115 59.9144 5.68539 60.1905ZM25.3631 60.6976C25.3631 61.089 25.383 61.2492 25.4072 61.0534C25.4315 60.8576 25.4315 60.5375 25.4072 60.3417C25.383 60.1459 25.3631 60.3061 25.3631 60.6976ZM46.045 60.1914C46.0132 60.2742 46.0033 60.5823 46.0231 60.8757C46.0591 61.4093 46.0591 61.4093 46.1117 60.7247C46.1649 60.0331 46.1503 59.9166 46.045 60.1914ZM52.8166 60.6976C52.8166 61.089 52.8365 61.2492 52.8607 61.0534C52.885 60.8576 52.885 60.5375 52.8607 60.3417C52.8365 60.1459 52.8166 60.3061 52.8166 60.6976ZM33.0195 60.8071C33.0195 61.1985 33.0394 61.3587 33.0635 61.1629C33.0878 60.9671 33.0878 60.647 33.0635 60.4512C33.0394 60.2554 33.0195 60.4156 33.0195 60.8071Z" fill="#FF7F00"/>
<path fill-rule="evenodd" clip-rule="evenodd" d="M25.0715 0.236623C24.9289 0.394297 24.8901 0.667709 24.8888 1.5232C24.8878 2.12061 24.851 2.6647 24.8068 2.73226C24.7626 2.79982 24.4064 3.01541 24.0154 3.21152C22.8923 3.77466 22.6816 3.9538 22.7457 4.29115C22.776 4.45025 22.8325 4.83918 22.8715 5.1553C22.9422 5.73015 22.9422 5.73015 24.846 5.73015C26.7498 5.73015 26.7498 5.73015 26.7498 2.95322C26.7498 0.176402 26.7498 0.1764 26.1756 0.107308C25.343 0.00722884 25.2712 0.01566 25.0715 0.236623ZM28.1339 1.15869C28.0953 1.65558 28.0633 2.88052 28.063 3.88098C28.0624 5.69993 28.0624 5.69993 30.0434 5.77943C31.133 5.82311 32.0659 5.81742 32.1166 5.76661C32.1673 5.71592 32.2599 4.78772 32.3226 3.70404C32.3851 2.62024 32.4648 1.47481 32.4994 1.15869C32.5472 0.723662 32.5273 0.583507 32.4179 0.582412C32.3384 0.581536 31.3874 0.507955 30.3046 0.418825C29.2217 0.329695 28.3062 0.256443 28.27 0.256114C28.2338 0.255676 28.1725 0.661906 28.1339 1.15869ZM33.8183 1.15869C33.696 2.20427 33.453 5.68121 33.4969 5.75753C33.5229 5.80275 34.5501 5.83965 35.7799 5.83965C37.0096 5.83965 38.0143 5.80275 38.0127 5.75753C38.011 5.7123 38.1429 4.6537 38.3058 3.40489C38.4687 2.15598 38.5755 1.10778 38.5431 1.07547C38.4973 1.02959 34.5872 0.701873 34.0027 0.694866C33.9308 0.69399 33.8484 0.901374 33.8183 1.15869ZM39.8262 1.26819C39.7747 1.43681 39.2261 5.77559 39.2536 5.79749C39.2646 5.80614 40.0662 5.83527 41.0352 5.86209C42.7968 5.91082 42.7968 5.91082 43.308 4.97189C43.5891 4.45551 44.0381 3.63878 44.3059 3.15699C44.8153 2.24029 44.8378 2.0236 44.4641 1.63379C44.2924 1.45466 43.9754 1.40429 42.2606 1.28308C39.7437 1.10537 39.8759 1.10613 39.8262 1.26819ZM35.1718 11.8072C34.841 11.884 34.6933 11.9477 34.8437 11.9487C34.9941 11.9496 35.3632 11.8871 35.664 11.8097C36.374 11.627 35.957 11.6249 35.1718 11.8072ZM28.9778 15.5848C28.9778 16.2171 28.9959 16.4758 29.018 16.1597C29.0401 15.8435 29.0401 15.3261 29.018 15.0099C28.9959 14.6938 28.9778 14.9525 28.9778 15.5848ZM22.6274 17.72C22.628 18.0813 22.6484 18.2159 22.6728 18.0191C22.6971 17.8223 22.6967 17.5267 22.6717 17.3621C22.6467 17.1976 22.6268 17.3586 22.6274 17.72ZM41.5817 17.9291C41.6142 18.014 41.5616 18.2368 41.4648 18.4243C41.3323 18.6807 41.3181 18.8119 41.4075 18.9542C41.5088 19.1157 41.5162 19.1073 41.4588 18.8971C41.4218 18.7615 41.4381 18.6507 41.495 18.6507C41.5519 18.6507 41.6484 18.4536 41.7095 18.2127C41.7985 17.8617 41.791 17.7747 41.6715 17.7747C41.5883 17.7747 41.5486 17.8428 41.5817 17.9291ZM22.8472 25.631C24.28 25.6483 26.5933 25.6483 27.9879 25.631C29.3823 25.6137 28.21 25.5994 25.3826 25.5995C22.5553 25.5995 21.4142 25.6137 22.8472 25.631ZM21.9119 29.3512C22.1084 29.3755 22.4038 29.3751 22.5682 29.3501C22.7325 29.325 22.5717 29.3051 22.2107 29.3058C21.8498 29.3063 21.7153 29.3268 21.9119 29.3512ZM29.703 29.596C29.4925 29.7088 29.1233 30.0146 28.8828 30.2756C28.4454 30.75 28.4454 30.75 28.9375 30.2964C29.2081 30.0469 29.6264 29.7411 29.8671 29.6168C30.1077 29.4927 30.2554 29.3909 30.1952 29.3909C30.135 29.3909 29.9136 29.4832 29.703 29.596ZM39.6484 30.007C39.2593 30.3347 38.6719 31.1009 38.6719 31.2806C38.6719 31.3436 38.8125 31.1731 38.9844 30.9018C39.1563 30.6305 39.4874 30.2512 39.7203 30.0592C39.9531 29.867 40.1116 29.7098 40.0724 29.7098C40.0332 29.7098 39.8424 29.8435 39.6484 30.007ZM33.5155 30.321C33.5777 30.4464 33.6975 30.6062 33.7818 30.6762C33.866 30.7463 34.024 31.0014 34.133 31.2432C34.2419 31.4851 34.3514 31.6625 34.3762 31.6377C34.4467 31.5673 34.0045 30.7864 33.6876 30.4215C33.5108 30.218 33.4454 30.1797 33.5155 30.321ZM22.0213 30.8841C22.2178 30.9084 22.5131 30.908 22.6775 30.883C22.8419 30.858 22.681 30.838 22.3201 30.8387C21.9591 30.8392 21.8247 30.8597 22.0213 30.8841ZM24.5119 31.2427C24.7502 31.5137 25.0334 31.8587 25.1413 32.0092C25.3308 32.2736 25.3309 32.2708 25.1439 31.9251C25.0374 31.7284 24.7542 31.3834 24.5145 31.1586C24.0786 30.75 24.0786 30.75 24.5119 31.2427ZM30.8808 30.8841C31.0773 30.9084 31.3726 30.908 31.537 30.883C31.7014 30.858 31.5405 30.838 31.1796 30.8387C30.8186 30.8392 30.6842 30.8597 30.8808 30.8841ZM20.7888 31.2293C20.6083 31.3418 20.3134 31.6003 20.1332 31.8037C19.8059 32.1735 19.8059 32.1735 20.2426 31.7754C20.4829 31.5566 20.8271 31.2998 21.0076 31.205C21.188 31.1101 21.2865 31.0308 21.2263 31.0286C21.1662 31.0264 20.9693 31.1167 20.7888 31.2293ZM39.8695 31.5344C39.6256 31.7551 39.3754 32.0383 39.3135 32.164C39.2517 32.2896 39.3301 32.2343 39.4878 32.0411C39.6455 31.8478 39.9326 31.565 40.1256 31.4127C40.3186 31.2603 40.4398 31.1351 40.3949 31.1344C40.3499 31.1338 40.1136 31.3138 39.8695 31.5344ZM24.141 31.6301C24.3002 31.8085 24.5339 32.1269 24.6601 32.3377C24.7863 32.5485 24.8898 32.6667 24.89 32.6005C24.8905 32.4408 24.3261 31.6682 24.061 31.4659C23.9458 31.3779 23.9817 31.4518 24.141 31.6301ZM18.9256 32.1606C18.8129 32.913 18.9079 33.0205 19.1685 32.4359C19.4292 31.8514 19.4192 31.7211 19.1506 32.2008C18.9819 32.5019 18.9819 32.5019 19.0498 32.0913C19.0873 31.8656 19.0907 31.6807 19.0577 31.6807C19.0246 31.6807 18.9652 31.8966 18.9256 32.1606ZM34.179 32.2794C34.4935 32.9421 34.6258 33.0329 34.6233 32.5841C34.6221 32.3804 34.592 32.3296 34.5302 32.4272C34.4637 32.5322 34.4014 32.4809 34.3014 32.2393C34.2257 32.0565 34.1039 31.8571 34.0306 31.7962C33.9572 31.7353 34.024 31.9527 34.179 32.2794ZM28.1444 32.0804C28.0124 32.3704 28.0124 32.3704 27.9389 32.1078C27.8775 31.8883 27.8638 31.8811 27.8562 32.064C27.8373 32.514 28.0153 32.5704 28.2041 32.174C28.3046 31.9629 28.362 31.7902 28.3316 31.7902C28.3012 31.7902 28.217 31.9207 28.1444 32.0804ZM44.8055 32.3377C44.9359 32.6087 45.0515 32.8413 45.0623 32.8544C45.073 32.8677 45.0858 32.6952 45.0905 32.4712C45.097 32.1611 45.0779 32.1162 45.0104 32.283C44.9616 32.4034 44.9183 32.4498 44.914 32.386C44.9098 32.3223 44.8303 32.1744 44.7374 32.0575C44.6427 31.9385 44.6727 32.0617 44.8055 32.3377ZM19.4555 33.5969C19.4561 33.9582 19.4765 34.0928 19.5009 33.896C19.5252 33.6993 19.5248 33.4036 19.4998 33.2391C19.4748 33.0745 19.4549 33.2356 19.4555 33.5969ZM44.3024 34.6448C44.19 34.9991 43.4225 35.7954 43.0407 35.9537C42.8598 36.0287 42.7334 36.1117 42.7598 36.1381C42.8545 36.2329 43.4371 35.8519 43.827 35.4399C44.2446 34.9989 44.5234 34.5458 44.433 34.4552C44.4035 34.4258 44.3447 34.5111 44.3024 34.6448ZM24.6624 34.774C24.4737 35.142 23.8949 35.7275 23.5232 35.9264C23.3428 36.023 22.826 36.1345 22.3748 36.1742C21.5545 36.2465 21.5545 36.2465 22.2416 36.263C23.0718 36.283 23.5914 36.086 24.1611 35.5351C24.5417 35.1672 24.9742 34.5276 24.8424 34.5276C24.8129 34.5276 24.732 34.6385 24.6624 34.774ZM19.6404 34.7184C19.6404 35.0787 20.9674 36.1701 21.4056 36.1701C21.479 36.1701 21.2722 36.0346 20.9459 35.8689C20.5845 35.6854 20.2137 35.3828 19.9966 35.0939C19.8007 34.8333 19.6404 34.6644 19.6404 34.7184ZM30.8764 36.2491C31.0705 36.2733 31.4151 36.2736 31.642 36.25C31.8689 36.2262 31.7101 36.2065 31.289 36.206C30.8679 36.2055 30.6821 36.2249 30.8764 36.2491ZM3.75343 42.9307C4.18962 42.9514 4.9032 42.9514 5.33939 42.9307C5.77558 42.9099 5.41869 42.8928 4.54641 42.8928C3.67413 42.8928 3.31724 42.9099 3.75343 42.9307ZM32.328 45.2035C31.2163 46.3176 30.2707 47.2292 30.2265 47.2292C30.1822 47.2292 30.1312 46.4532 30.1129 45.5046C30.0798 43.78 30.0798 43.78 30.0555 45.5593C30.0367 46.9301 30.0627 47.3387 30.1689 47.3387C30.2447 47.3387 31.2409 46.4025 32.3827 45.2582C33.5245 44.114 34.4341 43.1778 34.404 43.1778C34.3739 43.1778 33.4397 44.0894 32.328 45.2035ZM27.5659 48.7621C27.5659 51.5625 27.5801 52.7081 27.5974 51.3079C27.6147 49.9078 27.6147 47.6166 27.5974 46.2163C27.5801 44.8162 27.5659 45.9617 27.5659 48.7621ZM2.62412 45.9518C2.59338 46.032 2.5831 46.5125 2.60126 47.0194C2.63429 47.9409 2.63429 47.9409 2.68799 46.8731C2.74137 45.8125 2.73152 45.6716 2.62412 45.9518ZM33.8561 47.0923C33.1484 47.8314 33.1484 47.8314 33.8867 47.1228C34.2927 46.7331 34.6249 46.4005 34.6249 46.3837C34.6249 46.3032 34.5136 46.4058 33.8561 47.0923ZM11.027 47.42C11.4931 47.4406 12.2561 47.4406 12.7223 47.42C13.1885 47.3995 12.8071 47.3827 11.8746 47.3827C10.9422 47.3827 10.5608 47.3995 11.027 47.42ZM32.6237 48.1919C32.4009 48.4203 32.2187 48.6549 32.2187 48.7133C32.2187 48.7716 33.0185 49.6072 33.996 50.5701C35.7734 52.3207 35.7734 52.3207 34.0507 50.5676C33.1032 49.6033 32.328 48.7677 32.328 48.7108C32.328 48.6537 32.5103 48.4203 32.7331 48.1919C32.9559 47.9634 33.1135 47.7766 33.0834 47.7766C33.0533 47.7766 32.8465 47.9634 32.6237 48.1919ZM20.8005 49.7018C20.6256 50.1581 20.6871 50.1856 21.8826 50.1856C22.9067 50.1856 23.0301 50.1649 23.0224 49.9939C23.0173 49.8795 22.9916 49.8574 22.9586 49.9392C22.9199 50.0352 22.5928 50.0761 21.8616 50.0761C20.8198 50.0761 20.8198 50.0761 20.8885 49.8023C20.9645 49.499 20.9045 49.4305 20.8005 49.7018ZM25.4643 49.7749C25.4921 49.8503 25.6008 50.1737 25.7059 50.4938C25.8111 50.8138 25.9164 51.0565 25.9399 51.0328C25.9954 50.9773 25.5444 49.6381 25.4702 49.6381C25.4393 49.6381 25.4367 49.6997 25.4643 49.7749ZM10.5621 49.8218C12.0092 49.9008 13.7095 49.905 13.6627 49.8297C13.6347 49.7845 12.7902 49.7569 11.7862 49.7683C10.7821 49.7797 10.2313 49.8037 10.5621 49.8218ZM30.0311 52.0226C30.0311 53.41 29.9971 53.8035 29.8583 54.0209C29.6855 54.2917 29.6855 54.2917 29.913 54.0331C30.123 53.7945 30.1405 53.6411 30.1405 52.0348C30.1405 51.0779 30.1159 50.2951 30.0858 50.2951C30.0557 50.2951 30.0311 51.0725 30.0311 52.0226ZM32.2187 52.3207C33.3304 53.4349 34.2645 54.3464 34.2946 54.3464C34.3247 54.3464 33.4397 53.4349 32.328 52.3207C31.2163 51.2066 30.2822 50.2951 30.2521 50.2951C30.222 50.2951 31.107 51.2066 32.2187 52.3207ZM16.2915 52.2112C16.2917 52.9339 16.3094 53.2153 16.3307 52.8366C16.3522 52.4578 16.3521 51.8665 16.3304 51.5226C16.3088 51.1787 16.2913 51.4886 16.2915 52.2112ZM3.81315 51.9095C4.28205 51.9301 5.02034 51.9299 5.4538 51.9092C5.88715 51.8884 5.50345 51.8717 4.6011 51.8718C3.69874 51.8719 3.34414 51.8889 3.81315 51.9095ZM14.1954 54.3738C14.4285 54.6019 14.6022 54.6716 14.9116 54.6612C15.32 54.6475 15.32 54.6475 14.8562 54.5719C14.6013 54.5303 14.279 54.4009 14.14 54.2844C14.0012 54.1679 14.0261 54.2081 14.1954 54.3738ZM7.35378 58.0328C7.31363 58.0729 7.28968 58.4055 7.30051 58.7719C7.31987 59.4233 7.32107 59.4259 7.35848 58.8905C7.37948 58.5894 7.42247 58.2705 7.45397 58.1818C7.5045 58.0399 7.52353 58.0399 7.61311 58.1818C7.69864 58.3171 7.71526 58.3122 7.71669 58.1514C7.71833 57.9627 7.49618 57.8901 7.35378 58.0328ZM11.8107 58.1089C11.7792 58.1909 11.7714 58.5482 11.7934 58.9028C11.8333 59.5475 11.8333 59.5475 11.854 58.8652C11.8766 58.1181 11.8694 58.1249 12.7496 58.0342C12.9894 58.0096 12.8961 57.9882 12.5002 57.9773C12.0547 57.9649 11.8509 58.0038 11.8107 58.1089ZM18.1218 58.2061C18.1313 58.3915 18.1468 58.4051 18.1845 58.2609C18.212 58.1556 18.3023 58.0693 18.3852 58.0693C18.468 58.0693 18.5911 58.1556 18.6588 58.2609C18.7738 58.4398 18.7777 58.4393 18.719 58.2519C18.6843 58.1417 18.656 58.0307 18.656 58.0056C18.656 57.9804 18.5329 57.9598 18.3825 57.9598C18.1682 57.9598 18.1118 58.013 18.1218 58.2061ZM20.6794 58.0693C20.6423 58.1295 20.6627 58.1788 20.7249 58.1788C20.8012 58.1788 20.8033 58.2703 20.7314 58.4596C20.5972 58.8131 20.5976 58.8654 20.7341 58.781C20.8049 58.7372 20.8435 59.2022 20.8435 60.0965C20.8435 61.3547 20.8608 61.4765 21.0349 61.4434C21.1763 61.4166 21.2297 61.2929 21.2393 60.97C21.2524 60.5329 21.2524 60.5329 21.2054 60.9436C21.1796 61.1694 21.1121 61.3542 21.0557 61.3542C20.9962 61.3542 20.9575 60.7432 20.9638 59.9033C20.9705 59.0068 21.0081 58.5571 21.0623 58.7263C21.1337 58.9494 21.1518 58.9037 21.1607 58.4799C21.1701 58.0343 21.1412 57.9598 20.9593 57.9598C20.8425 57.9598 20.7166 58.0091 20.6794 58.0693ZM23.1131 58.0727C23.4168 58.1949 23.4241 58.3045 23.1404 58.4819C23.0201 58.5571 22.9224 58.6798 22.9233 58.7545C22.9245 58.8453 22.9589 58.837 23.0269 58.7293C23.1424 58.5465 23.1295 58.5246 23.4122 59.3832C23.5625 59.8395 23.5624 59.7698 23.4116 58.9726C23.3092 58.4311 23.5158 58.9738 23.8483 60.1195C23.9176 60.3585 23.9121 60.36 23.5332 60.2016C23.321 60.1128 23.0508 60.0402 22.9328 60.0402C22.7971 60.0402 22.7007 59.9495 22.6708 59.7938C22.6358 59.6122 22.6195 59.6393 22.6084 59.8969C22.6002 60.089 22.5443 60.2767 22.4842 60.3139C22.424 60.3512 22.3763 60.4403 22.3781 60.512C22.3799 60.5837 22.4315 60.5562 22.4929 60.4508C22.5719 60.315 22.7423 60.2592 23.0777 60.2592C23.6126 60.2592 23.7038 60.3421 23.8913 60.9983C23.9895 61.3422 24.0802 61.4637 24.2386 61.4637C24.3599 61.4637 24.4529 61.3895 24.4529 61.2929C24.4529 61.1918 24.4015 61.1541 24.3266 61.2003C24.2474 61.2494 24.2301 61.2303 24.2801 61.1493C24.324 61.0783 24.1306 60.3316 23.8505 59.49C23.4015 58.1414 23.3129 57.9607 23.104 57.9667C22.867 57.9737 22.867 57.9737 23.1131 58.0727ZM25.1218 58.0592C25.0285 58.1183 25.1755 58.1352 25.5046 58.1032C26.2454 58.0311 26.3486 57.9784 25.7655 57.9701C25.4947 57.9662 25.2051 58.0063 25.1218 58.0592ZM27.8709 58.0407C28.2169 58.0624 28.7828 58.0624 29.1288 58.0407C29.4747 58.019 29.1917 58.0012 28.4999 58.0012C27.8081 58.0012 27.525 58.019 27.8709 58.0407ZM37.3509 58.2798C36.8167 58.8146 36.9868 59.4075 37.7927 59.819C38.0231 59.9367 38.2905 60.112 38.3871 60.2087C38.4835 60.3053 38.5625 60.3376 38.5625 60.2804C38.5625 60.2233 38.4887 60.1152 38.3984 60.0402C38.1194 59.8084 38.2179 59.6757 38.5213 59.8748C38.6791 59.9782 38.774 60.0076 38.7323 59.94C38.6906 59.8724 38.4137 59.694 38.1172 59.5435C37.8207 59.3931 37.5781 59.2187 37.5781 59.1559C37.5781 59.0932 37.5378 59.0668 37.4885 59.0972C37.4392 59.1278 37.4203 59.0069 37.4464 58.8286C37.4993 58.4684 37.5712 58.4032 38.0608 58.2729C38.3304 58.2011 38.2992 58.1939 37.9062 58.2371C37.5563 58.2757 37.4615 58.2598 37.5781 58.1821C37.7873 58.0426 38.3491 58.0407 38.5625 58.1788C38.6976 58.2662 38.6992 58.2852 38.5716 58.2866C38.4864 58.2875 38.4462 58.3178 38.4823 58.354C38.5184 58.3901 38.6079 58.3827 38.6812 58.3372C38.8917 58.207 38.4725 57.9598 38.041 57.9598C37.7775 57.9598 37.5784 58.0521 37.3509 58.2798ZM49.7462 58.0398C49.6449 58.0752 49.6095 58.5236 49.6095 59.7756C49.6095 61.1724 49.6368 61.4637 49.7671 61.4637C49.8539 61.4637 49.9548 61.4149 49.9916 61.3554C50.0299 61.2934 49.986 61.275 49.8887 61.3123C49.6925 61.3877 49.6759 61.1033 49.7902 59.6331C49.8483 58.8864 49.8874 58.7486 50.0207 58.8232C50.1089 58.8725 50.5378 59.4747 50.9737 60.161C51.5255 61.0297 51.8374 61.4195 52.0004 61.4439C52.2312 61.4783 52.2346 61.454 52.2346 59.7806C52.2346 58.8465 52.1953 58.0579 52.1473 58.0282C51.8904 57.8692 51.8027 58.2001 51.7734 59.4421C51.7512 60.3801 51.7046 60.7519 51.6095 60.7519C51.45 60.7519 50.2363 58.8698 50.2905 58.7069C50.3326 58.5803 50.9848 59.5238 51.3485 60.2374C51.4773 60.4903 51.6074 60.6972 51.6375 60.6972C51.73 60.6972 51.251 59.82 50.7312 59.0372C50.4594 58.628 50.1998 58.3162 50.1544 58.3442C50.1089 58.3724 50.0047 58.3096 49.9227 58.2049C49.7878 58.0326 49.7917 58.0288 49.965 58.1648C50.0702 58.2474 50.1564 58.2651 50.1564 58.2038C50.1564 58.0664 49.9297 57.9758 49.7462 58.0398ZM53.1916 58.0382C52.8908 58.0838 52.8908 58.0838 52.8908 59.7737C52.8908 61.4637 52.8908 61.4637 53.6838 61.4632C54.5961 61.4628 55.0525 61.2529 55.407 60.6708C55.6777 60.2265 55.694 59.3972 55.4426 58.8667C55.2449 58.4499 54.7184 58.0644 54.3674 58.0796C54.222 58.0858 54.2617 58.1219 54.4856 58.187C54.8188 58.2839 55.3286 58.7263 55.107 58.7263C55.044 58.7263 54.965 58.6548 54.9315 58.5675C54.8967 58.4767 54.5765 58.3478 54.1849 58.2668C53.5757 58.1409 53.5354 58.1172 53.8238 58.0554C54.1487 57.9857 54.1487 57.9857 53.8205 57.9891C53.64 57.991 53.3571 58.0131 53.1916 58.0382ZM13.5069 58.3528C13.7583 58.5645 13.8434 58.7282 13.8434 59C13.8434 59.2718 13.7583 59.4355 13.5069 59.6472C13.3218 59.8032 13.0921 59.9307 12.9965 59.9307C12.9008 59.9307 12.8538 59.962 12.8919 60.0002C13.0107 60.119 13.6054 59.8121 13.7834 59.5402C14.0465 59.1382 13.9952 58.6984 13.646 58.3635C13.4773 58.2017 13.3012 58.0693 13.2549 58.0693C13.2084 58.0693 13.3218 58.1968 13.5069 58.3528ZM17.0153 58.176C17.0153 58.2361 16.8726 58.2542 16.6885 58.2173C15.9697 58.0734 15.5623 58.7465 16.0397 59.289C16.2672 59.5475 16.2672 59.5475 16.0944 59.2767C15.6923 58.647 16.0236 58.2123 16.805 58.3444C17.1696 58.4061 17.2246 58.3908 17.168 58.2432C17.0932 58.0483 17.0153 58.014 17.0153 58.176ZM30.2736 59.7391C30.2499 61.4637 30.2499 61.4637 31.1876 61.4637C31.9999 61.4637 32.1206 61.4396 32.0899 61.2832C32.0621 61.1412 31.9149 61.1005 31.3983 61.0916C30.7421 61.0804 30.7421 61.0804 30.7093 60.5112C30.6763 59.942 30.6763 59.942 31.3108 59.9089C31.7872 59.8842 31.9452 59.835 31.9452 59.7117C31.9452 59.5885 31.7878 59.5393 31.3163 59.5146C30.6874 59.4818 30.6874 59.4818 30.6874 58.945C30.6874 58.4082 30.6874 58.4082 31.371 58.3693C32.0546 58.3304 32.0546 58.3304 31.3163 58.3094C30.4646 58.285 30.5512 58.0972 30.5697 59.9269C30.5773 60.6777 30.5442 61.0356 30.4737 60.965C30.4146 60.9059 30.3507 60.2177 30.3318 59.436C30.2975 58.0145 30.2975 58.0145 30.2736 59.7391ZM39.4452 58.3156C39.4525 58.5501 39.4573 58.5514 39.5436 58.343C39.6098 58.183 39.6464 58.301 39.6792 58.781C39.7243 59.438 39.7243 59.438 39.745 58.7536C39.7614 58.2091 39.7322 58.0693 39.6016 58.0693C39.502 58.0693 39.4406 58.1662 39.4452 58.3156ZM41.2969 58.781C41.2969 59.4927 41.2969 59.4927 40.5313 59.4927C40.1102 59.4927 39.7656 59.5389 39.7656 59.5955C39.7656 59.687 40.0871 59.7541 40.9688 59.8472C41.2292 59.8746 41.2438 59.9136 41.2744 60.6698C41.3028 61.3738 41.3307 61.4637 41.5205 61.4637C41.7236 61.4637 41.7344 61.378 41.7344 59.7665C41.7344 58.1423 41.725 58.0693 41.5157 58.0693C41.3193 58.0693 41.2969 58.1423 41.2969 58.781ZM44.2984 58.2831C44.4754 58.3998 44.7335 58.6829 44.8721 58.912C45.153 59.3764 45.2147 59.3267 44.9627 58.8389C44.8068 58.5373 44.2621 58.0685 44.0692 58.07C44.0183 58.0704 44.1215 58.1663 44.2984 58.2831ZM48.7125 59.7666C48.6946 60.7001 48.7167 61.4639 48.7619 61.4638C48.807 61.4638 48.8439 60.6999 48.8439 59.7665C48.8439 58.833 48.8217 58.0693 48.7946 58.0693C48.7674 58.0693 48.7305 58.8331 48.7125 59.7666ZM56.1721 59.7665C56.1721 61.3906 56.1815 61.4637 56.3909 61.4637C56.6002 61.4637 56.6096 61.3906 56.6096 59.7665C56.6096 58.1423 56.6002 58.0693 56.3909 58.0693C56.1815 58.0693 56.1721 58.1423 56.1721 59.7665ZM57.9343 59.0536C57.7432 59.6015 57.6207 60.1044 57.662 60.1714C57.7034 60.2383 57.6886 60.263 57.6293 60.2264C57.5701 60.1896 57.4394 60.4204 57.3389 60.7391C57.1108 61.4637 57.1108 61.4637 57.3753 61.4637C57.4956 61.4637 57.594 61.4159 57.594 61.3576C57.594 61.2993 57.5202 61.2799 57.4299 61.3145C57.2232 61.394 57.2237 61.3155 57.4321 60.9119C57.5236 60.7348 57.5938 60.5537 57.588 60.5094C57.5823 60.4652 57.6309 60.4112 57.6961 60.3894C57.7795 60.3616 57.7819 60.4357 57.7043 60.6401C57.6437 60.7998 57.5977 60.9888 57.6023 61.0602C57.6069 61.1316 57.6727 61.0175 57.7483 60.8067C57.881 60.4373 57.9082 60.4222 58.4978 60.3908C59.1096 60.3582 59.1096 60.3582 59.2546 60.8718C59.3916 61.3579 59.6888 61.7025 59.8402 61.5509C59.8782 61.5129 59.67 60.7262 59.3775 59.8029C58.8833 58.243 58.8257 58.1217 58.5637 58.0909C58.2997 58.0599 58.2595 58.1215 57.9343 59.0536ZM27.6249 58.2883C27.7151 58.3466 27.8996 58.3951 28.035 58.3961C28.2784 58.3978 28.2811 58.4145 28.2811 59.9307C28.2811 60.7738 28.318 61.4638 28.3631 61.4639C28.4083 61.464 28.4311 60.7864 28.4137 59.9583C28.3795 58.3233 28.3241 58.1769 27.7407 58.1804C27.5198 58.1817 27.4953 58.2045 27.6249 58.2883ZM41.4063 59.657C41.4063 60.5694 41.4482 61.1352 41.5157 61.1352C41.5831 61.1352 41.625 60.5694 41.625 59.657C41.625 58.7445 41.5831 58.1788 41.5157 58.1788C41.4482 58.1788 41.4063 58.7445 41.4063 59.657ZM33.8249 58.3985C34.3413 58.6069 34.4223 59.3593 33.9549 59.6096C33.8285 59.6773 33.5645 59.714 33.3683 59.6911C33.0662 59.6558 33.0116 59.6843 33.0116 59.8782C33.0116 60.0901 33.0528 60.1014 33.5722 60.0324C33.9058 59.988 34.1891 60.003 34.272 60.0692C34.3761 60.1527 34.3942 60.1362 34.3435 60.0042C34.3049 59.9036 34.3744 59.7023 34.5051 59.536C34.766 59.2038 34.8351 58.6157 34.5892 58.8201C34.4776 58.9127 34.3881 58.8651 34.2031 58.6145C34.0705 58.4351 33.8775 58.2914 33.774 58.2952C33.6301 58.3005 33.642 58.3247 33.8249 58.3985ZM42.946 58.5718C42.7609 58.7277 42.6094 58.8963 42.6094 58.9466C42.6094 58.9968 42.7533 58.8939 42.9291 58.7178C43.3203 58.3263 43.8557 58.2914 44.3173 58.6275C44.6329 58.8571 44.6329 58.8571 44.326 58.5727C43.9176 58.1942 43.3946 58.1938 42.946 58.5718ZM53.0732 58.3613C53.033 58.4014 53.0002 59.0912 53.0002 59.8942C53.0002 61.3542 53.0002 61.3542 53.7166 61.3542C54.5582 61.3542 54.9981 61.1628 55.3015 60.6644C55.532 60.286 55.5934 59.3444 55.4065 59.0547C55.2858 58.8678 55.278 58.904 55.2768 59.657C55.2759 60.2044 55.2759 60.2045 55.2019 59.6358C55.0845 58.7311 54.3128 58.1271 53.614 58.3931C53.3213 58.5045 53.3213 58.5045 53.3522 59.7924C53.383 61.0804 53.383 61.0804 53.8878 61.1132C54.2986 61.1399 54.4614 61.0917 54.7628 60.8544C55.133 60.5628 55.133 60.5628 54.7758 60.9037C54.4879 61.1785 54.3261 61.2447 53.9416 61.2447C53.6621 61.2447 53.4109 61.1801 53.3351 61.0886C53.247 60.9822 53.2165 60.5127 53.2397 59.6102C53.2718 58.3622 53.2483 58.186 53.0732 58.3613ZM7.60895 59.9307C7.60895 60.7569 7.56531 61.3542 7.50504 61.3542C7.44784 61.3542 7.38331 61.0709 7.36165 60.7246C7.32217 60.095 7.32217 60.095 7.30149 60.7793C7.28279 61.3975 7.30193 61.4637 7.49958 61.4637C7.7075 61.4637 7.71833 61.3906 7.71833 59.9855C7.71833 59.1725 7.69372 58.5073 7.66364 58.5073C7.63356 58.5073 7.60895 59.1478 7.60895 59.9307ZM18.0356 59.219C18.0361 59.6405 18.0558 59.7995 18.0796 59.5724C18.1032 59.3452 18.1029 59.0003 18.0787 58.806C18.0545 58.6115 18.0352 58.7974 18.0356 59.219ZM51.9296 59.3832C51.9308 60.2383 51.9388 60.2726 52.0287 59.8051C52.0866 59.5041 52.086 59.1242 52.0274 58.8744C51.9432 58.5156 51.9286 58.5916 51.9296 59.3832ZM15.4966 58.8703C15.4806 59.264 15.6424 59.5652 15.9514 59.7165C16.1808 59.8289 16.1797 59.8236 15.9343 59.6254C15.7851 59.505 15.6384 59.2325 15.5914 58.9885C15.5234 58.6356 15.507 58.6152 15.4966 58.8703ZM58.4127 58.7536C58.1874 59.3775 58.0315 59.8645 58.0315 59.9445C58.0315 59.9972 58.2284 60.0402 58.469 60.0402C58.965 60.0402 58.9708 60.0218 58.7347 59.2085C58.5582 58.6003 58.4984 58.5161 58.4127 58.7536ZM47.6407 59.0072C47.6407 59.3831 47.4542 59.7117 47.2406 59.7117C47.0976 59.7117 47.0914 59.6825 47.2054 59.5448C47.2816 59.4531 47.3244 59.3594 47.3009 59.3366C47.2773 59.3138 47.1694 59.4136 47.0614 59.5582C46.9211 59.7461 46.9054 59.8217 47.0067 59.8229C47.1081 59.8241 47.1017 59.8548 46.9845 59.9307C46.8624 60.0097 46.8576 60.0372 46.9656 60.0386C47.247 60.0417 47.7501 59.4163 47.7501 59.0632C47.7501 58.8779 47.7255 58.7263 47.6954 58.7263C47.6654 58.7263 47.6407 58.8527 47.6407 59.0072ZM11.8746 60.2592C11.8746 60.5803 11.905 60.8127 11.9423 60.7755C12.0258 60.6918 12.0205 59.8213 11.936 59.7367C11.9023 59.7029 11.8746 59.938 11.8746 60.2592ZM25.7872 60.011C26.1864 60.0426 26.3169 60.1012 26.3715 60.2732C26.4101 60.3951 26.4658 60.4705 26.4952 60.4411C26.5247 60.4116 26.4939 60.2847 26.4267 60.1591C26.3267 59.972 26.2115 59.9343 25.789 59.9504C25.2733 59.9701 25.2733 59.9701 25.7872 60.011ZM21.9664 60.7616C21.7341 61.4768 21.7341 61.4768 21.9713 61.4429C22.1036 61.4239 22.2162 61.3233 22.2258 61.2151C22.2379 61.0793 22.2277 61.0711 22.1916 61.1877C22.1632 61.2793 22.0943 61.3542 22.0387 61.3542C21.9104 61.3542 21.9068 61.3873 22.1088 60.7063C22.3566 59.8707 22.2411 59.9156 21.9664 60.7616ZM44.647 60.2968C44.5358 60.7403 44.0682 61.1358 43.6599 61.1317C43.2846 61.1278 43.0755 60.9969 42.7958 60.5906C42.6933 60.4418 42.611 60.3679 42.6129 60.4264C42.6185 60.5978 42.9102 60.9375 43.2366 61.153C43.403 61.2628 43.4751 61.3531 43.3969 61.3534C43.1174 61.3548 42.6122 61.0177 42.4525 60.7231C42.3631 60.5583 42.2881 60.474 42.2857 60.5359C42.2787 60.7161 42.5998 61.1222 42.8611 61.2636C42.9935 61.3351 43.3477 61.4038 43.6485 61.416C43.9493 61.4283 44.1081 61.4061 44.0015 61.3665C43.8358 61.3052 43.8557 61.2663 44.1387 61.0989C44.4847 60.8944 44.841 60.3369 44.7674 60.1158C44.7439 60.045 44.6897 60.1265 44.647 60.2968ZM38.7961 60.4886C38.7784 60.9567 38.5278 61.2171 38.0084 61.3073C37.7586 61.3508 37.6815 61.3381 37.7784 61.2693C37.8871 61.1921 37.8456 61.1503 37.6143 61.1035C37.444 61.0691 37.2185 61.0076 37.1133 60.9669C36.9789 60.9149 36.9219 60.946 36.9219 61.0714C36.9219 61.4443 37.8962 61.5877 38.4569 61.2974C38.7957 61.1221 38.9412 60.7808 38.8599 60.3525C38.8257 60.1719 38.8066 60.2126 38.7961 60.4886ZM18.2382 60.7793C18.2146 61.4654 18.0076 61.5537 17.9813 60.8888C17.963 60.4234 17.963 60.4234 17.9192 60.8485C17.8715 61.3108 18.028 61.5886 18.225 61.3914C18.2889 61.3274 18.3224 61.0343 18.2995 60.7399C18.2578 60.2045 18.2578 60.2044 18.2382 60.7793ZM28.6431 60.8614C28.6437 61.2228 28.6641 61.3573 28.6885 61.1606C28.7128 60.9638 28.7124 60.6682 28.6874 60.5036C28.6624 60.339 28.6425 60.5001 28.6431 60.8614ZM39.6563 60.8131C39.6563 61.1545 39.6143 61.3411 39.5469 61.2994C39.4867 61.2622 39.4375 61.284 39.4375 61.3477C39.4375 61.4114 39.5113 61.4637 39.6016 61.4637C39.7276 61.4637 39.7656 61.3237 39.7656 60.8614C39.7656 60.5302 39.741 60.2592 39.711 60.2592C39.6809 60.2592 39.6563 60.5085 39.6563 60.8131ZM17.024 60.6073C17.006 60.9883 16.6907 61.1562 16.1363 61.0799C15.5752 61.0026 15.3271 61.1529 15.6925 61.3487C16.0528 61.5416 16.7397 61.4852 17.0553 61.2367C17.2137 61.112 17.3435 60.9587 17.3435 60.8961C17.3435 60.8336 17.2573 60.8863 17.1521 61.0132C17.0468 61.1401 16.7884 61.2686 16.5778 61.2988C16.195 61.3534 16.195 61.3534 16.548 61.2418C16.9118 61.1268 17.1794 60.7846 17.0858 60.5543C17.0557 60.4804 17.0289 60.5034 17.024 60.6073ZM45.6043 60.97C45.6139 61.2929 45.6673 61.4166 45.8087 61.4434C45.9139 61.4633 46.0001 61.4284 46.0001 61.3657C46.0001 61.3029 45.9294 61.2787 45.8431 61.3118C45.7279 61.3561 45.6736 61.2609 45.6387 60.9525C45.5913 60.5329 45.5913 60.5329 45.6043 60.97ZM4.13253 60.9189C3.96026 61.1952 3.53555 61.2968 3.23236 61.1343C2.88115 60.9462 2.65146 61.1913 2.96045 61.4246C3.37127 61.7349 4.48363 61.3933 4.63741 60.9095C4.66497 60.8229 4.58611 60.8751 4.4623 61.0257C4.33848 61.1762 4.20122 61.2636 4.15747 61.2199C4.11361 61.1762 4.14095 61.0642 4.21828 60.9709C4.29561 60.8776 4.33761 60.7802 4.3118 60.7542C4.28588 60.7284 4.20527 60.8024 4.13253 60.9189ZM10.4768 60.9359C10.4058 61.0069 10.1375 61.0994 9.8807 61.1412C9.41366 61.2173 9.41367 61.2173 9.81169 61.231C10.0633 61.2396 10.3048 61.1654 10.4679 61.0293C10.61 60.9109 10.6991 60.8124 10.666 60.8103C10.6329 60.8083 10.5478 60.8648 10.4768 60.9359ZM10.5172 61.2166C10.4724 61.2615 10.1565 61.3282 9.81529 61.3648C9.19491 61.4315 9.19491 61.4315 9.74825 61.4476C10.088 61.4574 10.3835 61.4016 10.5139 61.3029C10.6306 61.2144 10.6975 61.1405 10.6624 61.1387C10.6273 61.1367 10.5619 61.1719 10.5172 61.2166Z" fill="#005F85"/>
</svg>
